<?xml version="1.0" standalone="no"?>
<!DOCTYPE svg PUBLIC "-//W3C//DTD SVG 20010904//EN"
 "http://www.w3.org/TR/2001/REC-SVG-20010904/DTD/svg10.dtd">
<svg version="1.0" xmlns="http://www.w3.org/2000/svg"
 width="500.000000pt" height="500.000000pt" viewBox="0 0 500.000000 500.000000"
 preserveAspectRatio="xMidYMid meet">
<metadata>
Created by potrace 1.11, written by Peter Selinger 2001-2013
</metadata>
<g transform="translate(0.000000,500.000000) scale(0.100000,-0.100000)"
fill="#000000" stroke="none">
<path d="M1345 4820 c-34 -13 -43 -32 -50 -105 -3 -38 -9 -92 -11 -120 -3 -27
-8 -53 -12 -56 -4 -4 -32 -10 -62 -14 -148 -17 -234 -27 -253 -31 -10 -2 -48
-6 -85 -9 -37 -3 -74 -8 -82 -10 -8 -2 -37 -7 -65 -10 -27 -3 -66 -7 -85 -10
-19 -2 -57 -7 -85 -10 -27 -4 -61 -8 -75 -10 -21 -3 -65 -9 -155 -20 -11 -1
-30 -3 -42 -4 -12 0 -32 -11 -43 -23 -22 -24 -22 -40 -5 -168 2 -19 7 -57 11
-85 3 -27 8 -63 10 -80 2 -16 6 -54 10 -83 3 -29 7 -61 9 -70 1 -9 6 -46 10
-82 4 -36 9 -73 10 -82 2 -9 6 -44 10 -77 3 -33 7 -68 9 -78 4 -22 15 -102 21
-163 3 -25 7 -61 10 -80 3 -19 7 -53 10 -75 3 -22 7 -58 10 -80 3 -22 8 -56 9
-75 2 -19 7 -57 10 -85 8 -58 13 -92 20 -155 10 -81 37 -294 41 -325 7 -50 25
-187 30 -235 3 -25 7 -61 10 -80 2 -19 9 -73 15 -120 6 -47 12 -98 15 -115 2
-16 7 -55 10 -85 9 -79 12 -105 24 -195 6 -44 13 -98 15 -120 2 -22 9 -78 15
-125 7 -47 14 -101 16 -120 8 -66 26 -205 30 -230 3 -25 7 -55 21 -175 3 -33
8 -67 9 -76 2 -9 6 -40 9 -70 4 -30 9 -70 12 -89 2 -19 7 -52 9 -72 3 -21 7
-53 9 -70 2 -18 7 -58 11 -88 4 -30 9 -66 10 -80 2 -14 7 -59 11 -100 5 -55
12 -81 27 -97 l20 -23 1708 0 1708 0 20 26 c15 19 21 41 21 80 0 48 2 52 20
49 41 -8 126 -9 147 -1 18 6 31 25 38 56 1 3 5 52 9 110 5 58 10 112 11 120 1
8 6 62 10 120 4 58 9 112 10 120 3 14 10 98 20 235 3 28 7 75 10 105 3 30 7
84 10 120 3 36 7 90 10 120 3 30 7 84 10 120 3 36 8 85 10 110 3 25 7 74 10
110 3 36 7 90 10 120 2 30 7 83 10 117 3 35 7 91 10 125 3 35 8 88 10 118 3
30 7 78 9 105 6 67 16 180 21 235 2 25 7 79 10 120 3 41 7 95 10 120 2 25 7
79 10 120 3 41 8 86 10 100 2 14 7 68 10 120 4 52 8 109 9 125 2 17 6 66 10
110 4 44 9 100 11 125 2 25 7 79 10 120 5 71 9 109 20 232 2 29 7 80 9 113 10
123 18 205 21 232 2 15 7 83 11 150 l7 121 -29 15 c-16 8 -67 18 -114 22 -47
3 -101 8 -120 10 -19 2 -73 6 -120 10 -47 3 -96 8 -110 10 -14 2 -63 7 -110
10 -47 3 -106 8 -132 10 -27 3 -69 7 -95 10 -60 5 -214 18 -230 18 -7 0 -13 3
-14 6 0 3 -3 22 -5 41 -10 72 -12 85 -13 102 0 10 -11 27 -23 38 -21 19 -30
21 -90 15 -37 -3 -77 -8 -90 -10 -13 -2 -151 -20 -308 -39 -157 -20 -303 -38
-325 -41 -110 -15 -183 -22 -215 -20 -35 2 -149 12 -245 20 -100 9 -171 15
-235 20 -36 3 -81 8 -100 10 -19 2 -73 7 -120 10 -47 3 -101 8 -120 10 -19 2
-75 6 -125 10 -49 3 -101 8 -115 10 -14 2 -65 7 -115 10 -49 4 -92 8 -95 10
-3 1 -14 -1 -25 -5z m2236 -278 c9 -70 15 -128 14 -130 -5 -6 -2166 -4 -2172
2 -4 3 7 6 23 7 16 0 36 2 44 3 8 2 40 6 70 10 30 4 69 8 85 11 17 2 91 11
165 20 74 9 146 18 160 20 14 2 48 6 75 9 28 4 100 13 160 21 61 7 130 16 155
19 48 6 427 53 495 62 22 2 56 7 75 9 19 2 71 9 115 15 91 12 127 16 205 25
30 3 66 8 80 10 14 2 43 7 65 9 22 3 63 8 90 12 28 3 52 8 54 10 15 14 28 -32
42 -144z m-1956 123 c39 -3 90 -8 115 -10 25 -2 81 -7 125 -11 44 -4 88 -8 97
-9 33 -3 31 -15 -3 -16 -19 0 -41 -2 -50 -4 -8 -1 -42 -6 -75 -9 -32 -4 -72
-9 -89 -11 -140 -19 -198 -26 -245 -31 -30 -3 -61 -7 -69 -10 -11 -3 -12 7 -8
53 4 32 6 62 7 67 0 4 28 5 63 2 34 -3 94 -8 132 -11z m2205 -189 c47 -4 105
-9 130 -11 25 -2 81 -7 125 -10 44 -4 96 -8 115 -10 19 -2 64 -6 100 -9 143
-12 226 -19 255 -22 17 -1 43 -3 58 -3 l28 -1 -6 -77 c-4 -43 -8 -94 -10 -113
-2 -19 -6 -73 -10 -120 -4 -47 -8 -101 -10 -120 -2 -19 -6 -71 -10 -115 -3
-44 -7 -96 -10 -115 -2 -19 -7 -69 -10 -110 -3 -41 -8 -95 -10 -120 -2 -25 -7
-76 -10 -115 -3 -38 -8 -92 -10 -120 -3 -27 -7 -81 -10 -120 -3 -38 -8 -95
-11 -125 -2 -30 -7 -84 -9 -120 -3 -36 -7 -81 -10 -100 -2 -19 -7 -73 -11
-120 -3 -47 -7 -101 -9 -120 -2 -19 -6 -73 -10 -120 -3 -47 -8 -101 -10 -120
-4 -32 -7 -64 -20 -220 -3 -30 -7 -80 -9 -110 -3 -30 -8 -89 -11 -130 -4 -41
-8 -95 -10 -120 -3 -25 -7 -76 -10 -115 -15 -191 -25 -306 -30 -345 -2 -19 -7
-75 -10 -125 -3 -49 -8 -101 -10 -115 -2 -14 -6 -65 -10 -115 -4 -49 -8 -106
-10 -125 -2 -19 -7 -71 -10 -115 -4 -44 -8 -96 -10 -115 -2 -19 -5 -54 -6 -78
-3 -42 -3 -42 -41 -42 l-38 0 0 1013 c0 1126 4 1057 -66 1057 -21 0 -42 -8
-54 -20 -20 -20 -20 -33 -20 -1113 l0 -1092 -1610 0 -1610 0 0 1977 0 1978
1610 0 1610 0 0 -748 c0 -739 0 -748 20 -770 38 -40 102 -23 115 31 3 12 4
374 3 804 -3 735 -4 783 -21 800 -16 16 -41 18 -215 20 -108 1 -211 2 -228 3
-28 0 -30 3 -33 41 -1 22 2 39 6 36 4 -3 46 -8 93 -11z m-3100 -1608 c0 -804
-2 -1459 -4 -1457 -2 2 -7 36 -10 75 -4 39 -8 80 -10 91 -2 10 -7 46 -11 78
-4 33 -8 71 -10 85 -7 44 -16 114 -19 150 -2 19 -6 53 -9 75 -3 22 -9 63 -12
90 -3 28 -8 64 -10 80 -4 29 -59 461 -70 555 -3 25 -12 99 -21 165 -8 66 -17
140 -20 165 -3 25 -7 56 -9 70 -2 14 -7 50 -10 80 -3 30 -8 66 -10 80 -3 14
-7 50 -10 80 -3 30 -7 66 -10 80 -2 14 -7 50 -10 80 -4 30 -10 84 -15 120 -5
36 -12 88 -15 115 -3 28 -8 64 -10 80 -2 17 -7 53 -10 80 -7 56 -13 106 -20
150 -2 17 -7 50 -9 75 -20 178 -20 168 0 173 11 3 46 9 79 13 33 3 68 8 77 10
9 1 48 6 85 9 37 4 70 9 72 11 2 2 10 4 18 4 11 0 13 -250 13 -1462z"/>
<path d="M3420 4039 c-17 -4 -32 -8 -34 -10 -2 -2 -40 -59 -85 -127 -82 -123
-83 -123 -106 -108 -55 36 -154 86 -218 110 -113 42 -313 75 -371 60 -48 -12
-49 -20 -48 -526 0 -568 -2 -510 21 -535 19 -20 28 -20 518 -20 274 0 504 2
511 5 17 6 39 52 37 77 -5 61 -15 153 -19 170 -26 123 -57 211 -109 305 -36
64 -124 185 -161 219 -14 14 -26 28 -26 33 0 19 134 208 149 209 9 1 89 2 177
3 144 1 164 3 183 20 31 28 28 81 -4 102 -21 14 -56 17 -205 18 -98 0 -193 -2
-210 -5z m-593 -230 c70 -15 169 -56 243 -99 l71 -41 -22 -37 c-13 -20 -29
-46 -36 -57 -31 -47 -2 -105 52 -105 30 0 40 7 72 49 21 28 41 49 45 48 20 -6
124 -154 163 -232 43 -86 85 -229 85 -287 0 -24 -4 -28 -27 -29 -125 -4 -766
1 -771 6 -4 4 -7 187 -7 406 l-1 400 46 -6 c25 -3 64 -10 87 -16z"/>
<path d="M2229 3668 c-344 -32 -667 -261 -816 -578 -64 -134 -94 -260 -96
-400 -5 -351 140 -646 418 -855 154 -115 374 -190 572 -194 96 -1 133 2 248
24 103 19 248 82 339 145 31 22 61 40 66 40 5 0 30 -35 56 -77 26 -43 59 -90
73 -106 l25 -27 353 0 c340 0 354 1 373 20 20 20 26 65 12 86 -18 28 -57 32
-347 32 -165 0 -308 1 -317 1 -10 1 -27 18 -38 39 -11 20 -34 58 -51 84 l-30
47 48 60 c139 172 219 374 230 582 9 149 46 138 -475 138 -235 0 -436 0 -448
1 -21 0 -21 0 -22 428 0 517 2 465 -19 491 -21 25 -52 29 -154 19z m36 -590
l1 -450 23 -19 c22 -18 47 -19 473 -19 l450 0 -7 -57 c-10 -79 -50 -203 -90
-279 -34 -64 -112 -174 -124 -174 -3 0 -40 55 -81 122 -88 144 -101 158 -139
158 -33 0 -72 -40 -68 -70 2 -15 79 -146 174 -296 13 -21 10 -24 -54 -66 -97
-63 -172 -96 -277 -123 -79 -21 -109 -24 -231 -21 -77 2 -151 6 -164 10 -188
46 -353 142 -471 273 -153 171 -233 394 -224 628 3 107 8 139 36 225 101 318
394 571 703 607 28 3 52 7 54 9 14 13 16 -51 16 -458z"/>
<path d="M1167 1409 c-71 -11 -94 -64 -48 -109 l26 -26 319 1 318 1 20 24 c37
46 5 108 -57 110 -151 4 -550 4 -578 -1z"/>
<path d="M2016 1405 c-12 -6 -27 -23 -34 -38 -11 -22 -10 -31 2 -55 8 -16 23
-31 33 -34 10 -2 156 -4 325 -3 300 0 308 1 329 22 27 26 28 69 2 95 -19 18
-36 19 -328 21 -195 1 -316 -2 -329 -8z"/>
<path d="M1131 1033 c-32 -22 -41 -53 -25 -84 7 -15 21 -29 29 -33 9 -3 239
-6 511 -6 481 0 495 1 514 20 28 28 26 74 -5 98 -24 19 -43 20 -514 20 -424 1
-491 -1 -510 -15z"/>
<path d="M2361 1026 c-27 -28 -27 -70 -1 -96 18 -18 33 -20 151 -20 73 0 139
5 150 11 43 23 41 96 -4 116 -12 6 -79 10 -149 10 -118 1 -128 -1 -147 -21z"/>
<path d="M1120 660 c-28 -28 -26 -74 3 -97 21 -16 42 -18 188 -17 90 1 170 2
176 3 17 1 41 51 37 76 -2 11 -13 28 -25 37 -18 16 -44 18 -190 18 -156 0
-171 -2 -189 -20z"/>
<path d="M1708 666 c-28 -21 -33 -68 -10 -96 l20 -25 466 0 c463 0 466 0 487
22 28 28 28 72 -1 95 -21 17 -53 18 -484 18 -367 -1 -465 -3 -478 -14z"/>
</g>
</svg>
